<svg height="511pt" viewBox="0 0 511.99964 511" width="511pt" xmlns="http://www.w3.org/2000/svg"><path d="m464.535156 332.699219-178.539062 29.796875-30 30 30 60.203125 178.539062 29.589843c.832032.144532 1.652344.207032 2.472656.207032zm0 0" fill="#bbdcff"/><path d="m391.996094 147.398438v80.097656c0 5.402344-3 10.5-7.800782 13.199218-2.101562 1.199219-58.898437 31.800782-128.199218 31.800782-69.296875 0-125.097656-30.601563-127.199219-31.800782-4.800781-2.699218-7.796875-7.796874-7.796875-13.199218v-80.097656c0-8.101563 6.597656-15 15-15h240.996094c8.398437 0 15 6.898437 15 15zm0 0" fill="#47568c"/><path d="m391.996094 147.398438v80.097656c0 5.402344-3 10.5-7.800782 13.199218-2.101562 1.199219-58.898437 31.800782-128.199218 31.800782v-140.097656h121c8.398437 0 15 6.898437 15 15zm0 0" fill="#2c3b73"/><path d="m510.410156 280.789062-28.414062-56.835937v-116.453125c0-8.292969-6.710938-15-15-15-8.292969 0-15 6.707031-15 15v116.453125l-28.417969 56.835937c-3.707031 7.410157-.703125 16.417969 6.707031 20.125 7.398438 3.664063 16.421875.703126 20.128906-6.707031l16.582032-33.164062 16.582031 33.164062c3.6875 7.359375 12.644531 10.421875 20.125 6.707031 7.410156-3.707031 10.414063-12.714843 6.707031-20.125zm0 0" fill="#eebf00"/><path d="m466.996094 482.496094c-25.648438 0-45-32.242188-45-75 0-42.757813 19.351562-75 45-75 25.648437 0 44.996094 32.242187 44.996094 75 0 42.757812-19.347657 75-44.996094 75zm0 0" fill="#9abadb"/><path d="m47.460938 332.699219c-.296876-.054688-.574219.0625-.871094.023437-.539063-.027344-1.050782-.226562-1.589844-.226562-.6875 0-1.316406.269531-1.996094.316406-.726562.09375-1.433594.132812-2.125.335938-23.53125 3.3125-40.878906 33.957031-40.878906 74.347656 0 42.683594 19.289062 74.867187 44.875 74.976562.039062 0 .070312.023438.109375.023438h.007813.007812c.003906 0 .011719-.007813.019531-.007813.808594 0 1.617188-.054687 2.441407-.199219l178.535156-29.589843 30-30.203125-30-60zm0 0" fill="#e0f4ff"/><path d="m478.695312 93.699219-217-92c-1.796874-.601563-3.898437-1.199219-5.699218-1.199219-1.800782 0-3.898438.597656-5.699219 1.199219l-215.996094 92c-5.699219 2.398437-9.300781 7.796875-9.300781 13.800781 0 6 3.601562 11.398438 9.300781 13.796875l215.996094 90c1.800781.902344 3.601563 1.199219 5.699219 1.199219 2.101562 0 3.902344-.296875 5.699218-1.199219l217-90c5.699219-2.398437 9.300782-7.796875 9.300782-13.796875 0-6.003906-3.601563-11.402344-9.300782-13.800781zm0 0" fill="#61729b"/><path d="m487.996094 107.5c0 6-3.601563 11.398438-9.300782 13.796875l-217 90c-1.796874.902344-3.597656 1.199219-5.699218 1.199219v-211.996094c1.800781 0 3.902344.597656 5.699218 1.199219l217 92c5.699219 2.398437 9.300782 7.796875 9.300782 13.800781zm0 0" fill="#47568c"/><path d="m285.996094 362.496094v114.898437c0 3.300781-1.199219 6.601563-3 9l-16.5 21.597657c-2.699219 3-6.597656 4.5-10.5 4.5-3.898438 0-7.796875-1.5-10.496094-4.5l-16.5-21.597657c-1.800781-2.402343-3-5.699219-3-9v-114.898437zm0 0" fill="#da90f8"/><path d="m255.996094 362.496094h30v114.898437c0 3.300781-1.199219 6.601563-3 9l-16.5 21.597657c-2.699219 3-6.597656 4.5-10.5 4.5zm0 0" fill="#b760ea"/></svg>